<?xml version="1.0" encoding="utf-8"?>
<!-- Generator: Adobe Illustrator 15.1.0, SVG Export Plug-In . SVG Version: 6.00 Build 0)  -->
<!DOCTYPE svg PUBLIC "-//W3C//DTD SVG 1.1//EN" "http://www.w3.org/Graphics/SVG/1.1/DTD/svg11.dtd">
<svg version="1.1" id="Layer_1" xmlns="http://www.w3.org/2000/svg" xmlns:xlink="http://www.w3.org/1999/xlink" x="0px" y="0px"
	 width="300px" height="300px" viewBox="0 0 300 300" enable-background="new 0 0 300 300" xml:space="preserve">
<g id="Your_Icon">
	<polygon points="274.674,249.394 170.237,249.394 164.405,249.394 164.405,255.869 164.405,274.028 164.405,280.5 170.237,280.5 
		274.674,280.5 280.5,280.5 280.5,274.028 280.5,255.869 280.5,249.394 	"/>
	<polygon points="114.556,24.291 22.687,76.252 19.5,78.051 19.5,82.022 19.5,95.988 19.5,99.967 22.695,101.765 114.561,153.501 
		123.029,158.265 123.029,147.72 123.029,132.841 123.029,128.858 119.829,127.06 51.854,88.893 119.829,50.724 123.029,48.928 
		123.029,44.942 123.029,30.063 123.029,19.5 	"/>
	<polygon points="222.453,19.5 205.447,19.5 201.711,19.5 200.151,23.283 98.129,271.332 94.358,280.5 103.433,280.5 120.438,280.5 
		124.187,280.5 125.74,276.71 227.755,28.669 231.521,19.5 	"/>
</g>
</svg>
