<?xml version="1.0" encoding="utf-8"?>
<!-- Generator: Adobe Illustrator 15.1.0, SVG Export Plug-In . SVG Version: 6.00 Build 0)  -->
<!DOCTYPE svg PUBLIC "-//W3C//DTD SVG 1.1//EN" "http://www.w3.org/Graphics/SVG/1.1/DTD/svg11.dtd">
<svg version="1.1" id="Layer_1" xmlns="http://www.w3.org/2000/svg" xmlns:xlink="http://www.w3.org/1999/xlink" x="0px" y="0px"
	 width="300px" height="300px" viewBox="0 0 300 300" enable-background="new 0 0 300 300" xml:space="preserve">
<g>
	<path fill-rule="evenodd" clip-rule="evenodd" d="M209.423,15.126c24.964,0,49.92,0,74.865,0c0,23.899,0,47.801,0,71.7
		c-7.242,0.62-15.717,0.09-23.447,0.269c-0.649-10.625-0.095-22.396-0.277-33.466c-2.807,1.564-5.023,3.922-7.347,6.109
		c-35.226,33.115-71.141,67.045-106.495,100.377c-16.169-14.312-31.013-28.876-47.182-44.08c-0.944-0.88-3.024-2.92-3.11-2.92
		c-0.572-0.02-3.995,3.495-5.079,4.513c-10.397,9.771-19.062,17.908-29.669,27.882c-1.247,1.173-4.107,4.757-4.801,4.782
		c-0.866,0.033-6.854-6.174-7.625-6.903c-2.807-2.639-5.234-5.511-7.625-6.903c2.062,25.984,12.616,43.073,28.525,56.293
		c15.199,12.633,38.282,22.758,66.115,19.126c25.787-3.374,44.166-15.151,56.21-30.277c11.272-14.149,20.589-35.221,16.091-60.545
		c-0.233-1.336-1.022-3.164-0.831-4.252c0.38-2.358,7.261-7.62,9.037-9.29c1.664-1.56,3.318-2.863,4.801-4.248
		c1.516-1.425,2.642-3.526,4.81-3.718c11.768,27.442,5.181,67.978-9.904,86.843c14.687,14.099,30.025,29.233,45.776,43.285
		c7.833,6.979,19.221,14,18.639,27.873c-0.363,8.765-5.779,15.541-12.149,19.914c-7.424,5.117-20.984,5.784-29.088,0.271
		c-5.442-3.706-10.121-9.506-15.268-14.337c-14.955-14.067-31.116-28.533-45.751-42.494c-16.688,8.846-37.295,14.67-61.02,13.016
		c-22.459-1.563-41.211-9.627-55.093-19.116c-26.359-18.034-50.726-53.035-42.095-98.792c7.192-38.063,33.863-64.752,68.94-76.742
		c19.037-6.517,44.356-7.824,64.962-2.391c19.574,5.156,34.67,14.438,47.468,26.024c-4.836,5.551-10.753,10.068-15.822,15.403
		c-16.811-16.242-48.396-29.629-82.779-20.714c-28.377,7.363-47.38,26.151-57.059,50.453c2.062,3.299,4.731,4.977,7.911,7.966
		c0.407,0.383,2.157,2.643,2.547,2.655c0.694,0.033,4.021-3.515,5.078-4.512c10.19-9.583,19.185-18.026,29.669-27.882
		c1.283-1.218,4.255-4.761,4.801-4.781c0.866-0.037,4.956,4.39,6.499,5.84c14.454,13.595,29.236,27.866,43.784,41.163
		c32.183-30.207,65.37-60.878,96.606-91.082c-11.203-0.179-23.16,0.347-33.896-0.269c0-7.082,0-14.165,0-21.243
		C209.119,15.545,209.102,15.171,209.423,15.126z"/>
</g>
</svg>
