<?xml version="1.0" encoding="utf-8"?>
<!-- Generator: Adobe Illustrator 15.1.0, SVG Export Plug-In . SVG Version: 6.00 Build 0)  -->
<!DOCTYPE svg PUBLIC "-//W3C//DTD SVG 1.1//EN" "http://www.w3.org/Graphics/SVG/1.1/DTD/svg11.dtd">
<svg version="1.1" id="Layer_1" xmlns="http://www.w3.org/2000/svg" xmlns:xlink="http://www.w3.org/1999/xlink" x="0px" y="0px"
	 width="300px" height="300px" viewBox="0 0 300 300" enable-background="new 0 0 300 300" xml:space="preserve">
<g>
	<path fill="#444444" d="M209.423,15.126c24.964,0,49.92,0,74.865,0c0,23.899,0,47.801,0,71.7c-7.242,0.62-15.718,0.09-23.447,0.269
		c-0.649-10.625-0.095-22.396-0.276-33.466c-2.808,1.564-5.023,3.922-7.348,6.109c-35.226,33.115-71.141,67.045-106.495,100.377
		c-16.169-14.312-31.013-28.876-47.182-44.08c-0.944-0.88-3.024-2.92-3.11-2.92c-0.572-0.02-3.995,3.495-5.079,4.513
		c-10.397,9.771-19.062,17.908-29.669,27.882c-1.247,1.173-4.107,4.757-4.801,4.782c-0.866,0.033-6.854-6.174-7.625-6.903
		c-2.807-2.639-5.234-5.511-7.625-6.903c2.062,25.985,12.616,43.073,28.525,56.293c15.199,12.633,38.282,22.758,66.115,19.125
		c25.788-3.373,44.167-15.15,56.209-30.276c11.272-14.149,20.59-35.221,16.092-60.545c-0.233-1.336-1.022-3.164-0.831-4.252
		c0.38-2.358,7.261-7.62,9.036-9.29c1.664-1.56,3.318-2.863,4.802-4.248c1.517-1.425,2.642-3.526,4.81-3.718
		c11.769,27.442,5.182,67.978-9.904,86.843c14.688,14.1,30.025,29.232,45.776,43.285c7.833,6.979,19.222,14,18.64,27.873
		c-0.363,8.765-5.779,15.541-12.149,19.914c-7.424,5.117-20.983,5.783-29.088,0.271c-5.442-3.706-10.121-9.506-15.269-14.337
		c-14.955-14.066-31.115-28.533-45.75-42.494c-16.688,8.846-37.295,14.67-61.021,13.016c-22.459-1.562-41.211-9.627-55.093-19.115
		c-26.359-18.034-50.726-53.035-42.095-98.792c7.192-38.063,33.863-64.752,68.94-76.742c19.037-6.517,44.356-7.824,64.962-2.391
		c19.574,5.156,34.67,14.438,47.469,26.024c-4.836,5.551-10.754,10.068-15.822,15.403c-16.812-16.242-48.396-29.629-82.779-20.714
		c-28.377,7.363-47.38,26.151-57.059,50.453c2.062,3.299,4.731,4.977,7.911,7.966c0.407,0.383,2.157,2.643,2.547,2.655
		c0.694,0.033,4.021-3.515,5.078-4.512c10.19-9.583,19.185-18.026,29.669-27.882c1.283-1.218,4.255-4.761,4.801-4.781
		c0.866-0.037,4.956,4.39,6.499,5.84c14.454,13.595,29.236,27.866,43.784,41.163c32.183-30.207,65.37-60.878,96.606-91.082
		c-11.203-0.179-23.16,0.347-33.896-0.269c0-7.082,0-14.165,0-21.243C209.119,15.545,209.102,15.171,209.423,15.126z"/>
</g>
</svg>
