<?xml version="1.0" encoding="utf-8"?>
<!-- Generator: Adobe Illustrator 15.1.0, SVG Export Plug-In . SVG Version: 6.00 Build 0)  -->
<!DOCTYPE svg PUBLIC "-//W3C//DTD SVG 1.1//EN" "http://www.w3.org/Graphics/SVG/1.1/DTD/svg11.dtd">
<svg version="1.1" id="Layer_1" xmlns="http://www.w3.org/2000/svg" xmlns:xlink="http://www.w3.org/1999/xlink" x="0px" y="0px"
	 width="300px" height="300px" viewBox="0 0 300 300" enable-background="new 0 0 300 300" xml:space="preserve">
<path fill="#010101" d="M280.9,127.044h-34.049h-5.677v5.667v9.208L59.584,95.873v-7.084L161.729,49.12v4.249v5.667h5.674h34.049
	h5.674v-5.667V19.366v-5.667h-5.674h-34.049h-5.674v5.667v17.708L59.584,77.098v-1.064v-5.666H53.91H19.862h-5.677v5.666v34.003
	v5.671h5.674h34.049h5.673v-5.666v-2.479l181.594,46.047v8.501l-111.721,78.273H99.307h-5.674v5.669v34.004v5.666h5.674h34.048
	h5.674v-5.666v-32.237l107.112-75.441h0.711H280.9h5.674v-5.666V132.71v-5.667H280.9z M173.078,25.035h22.7v22.667h-22.7V25.035z
	 M48.234,104.374H25.536V81.706h22.698V104.374z M127.681,274.39h-22.698v-22.668h22.698V274.39z M275.223,161.047h-22.698v-22.668
	h22.698V161.047z"/>
</svg>
